<?xml version="1.0" encoding="UTF-8"?>
<svg version="1.1" xmlns="http://www.w3.org/2000/svg" width="512" height="512">
<path d="M0 0 C1.16402847 -0.01474869 2.32805695 -0.02949738 3.52735901 -0.04469299 C7.37020064 -0.08910411 11.21288974 -0.11743635 15.0559082 -0.1418457 C16.39379231 -0.15127317 17.73167594 -0.16076782 19.0695591 -0.17032814 C24.6551643 -0.20881723 30.24075526 -0.24199844 35.82646465 -0.26069927 C43.74294007 -0.28729159 51.65774908 -0.3442531 59.57362145 -0.44646424 C65.1843834 -0.51633757 70.79471376 -0.54977253 76.40589935 -0.55826408 C79.73278153 -0.56415537 83.05660602 -0.58853711 86.38324547 -0.64282799 C131.83939154 -1.33987299 177.97681689 21.25448756 212.52612305 50.00317383 C214.15301234 51.35641696 215.79519073 52.68926745 217.4387207 54.0222168 C233.29833082 67.07035058 247.86316685 81.70713015 259.7902832 98.4440918 C261.09983777 100.27301644 262.44001094 102.07384777 263.79418945 103.86987305 C279.13922608 124.42385696 291.30779149 148.34001065 299.2387085 172.71601868 C300.14594317 175.41797119 300.14594317 175.41797119 301.39904785 178.13822937 C306.66362401 191.13504612 305.89407603 204.5060017 305.83325195 218.3269043 C305.83437063 221.04246422 305.84148069 223.7580043 305.8477478 226.47355652 C305.85679451 232.14623382 305.84499278 237.81858361 305.82104492 243.49121094 C305.79388235 249.99943631 305.80263179 256.50687696 305.83017695 263.01508313 C305.85305822 268.65220538 305.85597538 274.28909492 305.8429836 279.92624873 C305.83528688 283.27134861 305.8359056 286.61579462 305.85066605 289.96091652 C305.90228978 304.94872852 305.19106198 318.18923271 300.16918945 332.36987305 C299.59357667 334.25028406 299.02377046 336.13251107 298.46606445 338.01831055 C289.67581278 365.34678014 276.63793178 390.59227508 259.16918945 413.36987305 C258.2556695 414.59065921 257.34287401 415.81198794 256.4309082 417.03393555 C242.26147236 435.78251834 225.21255445 452.60489095 206.16918945 466.36987305 C205.57976562 466.79977539 204.9903418 467.22967773 204.38305664 467.67260742 C193.16191138 475.80215211 181.36318163 482.80370375 169.16918945 489.36987305 C168.37544922 489.80154785 167.58170898 490.23322266 166.76391602 490.67797852 C150.5053105 499.37799706 132.98691 504.73371144 115.48120117 510.31347656 C113.37299548 510.98590808 111.2684812 511.67010913 109.16918945 512.36987305 C107.65767335 512.47913878 106.14197057 512.5348402 104.62667847 512.55741882 C103.69420288 512.57324509 102.76172729 512.58907135 101.80099487 512.6053772 C100.77893951 512.61749237 99.75688416 512.62960754 98.70385742 512.64208984 C97.62501282 512.6582988 96.54616821 512.67450775 95.43463135 512.69120789 C85.37667603 512.83269981 75.31778385 512.91138472 65.2590313 512.97012615 C58.52340051 513.01024672 51.78935606 513.07020835 45.05444336 513.17919922 C-12.21101775 514.08326768 -12.21101775 514.08326768 -39.83081055 502.36987305 C-41.93492794 501.53272824 -44.04034632 500.69884403 -46.1472168 499.86865234 C-51.13296273 497.88377915 -55.99012205 495.68327309 -60.83081055 493.36987305 C-61.90903076 492.86375488 -61.90903076 492.86375488 -63.0090332 492.34741211 C-72.99390046 487.63865253 -82.48786506 482.241516 -91.83081055 476.36987305 C-93.33708008 475.43401367 -93.33708008 475.43401367 -94.8737793 474.47924805 C-116.99310475 460.27034263 -137.79413749 441.1758169 -153.83081055 420.36987305 C-154.62745117 419.36698242 -155.4240918 418.3640918 -156.24487305 417.33081055 C-166.8904321 403.85555045 -175.8577075 389.5715344 -183.83081055 374.36987305 C-184.21092285 373.65444336 -184.59103516 372.93901367 -184.98266602 372.2019043 C-190.3740795 361.92898108 -194.4475829 351.29028565 -198.14331055 340.30737305 C-198.55194336 339.10177734 -198.96057617 337.89618164 -199.3815918 336.65405273 C-205.33013715 318.46109208 -207.45928835 301.91072057 -207.43237305 282.7956543 C-207.44017412 280.45509038 -207.44884888 278.11452922 -207.45834351 275.77397156 C-207.4731668 270.89349143 -207.47276052 266.01330089 -207.4621582 261.1328125 C-207.45059344 254.94495156 -207.48441906 248.75829276 -207.53084755 242.57063007 C-207.56062377 237.74262311 -207.5620251 232.91489553 -207.55582809 228.08681297 C-207.55683984 225.80873425 -207.56703196 223.53063673 -207.58745193 221.25264931 C-208.00946629 167.59693646 -177.38275819 113.19551092 -140.83081055 75.36987305 C-140.14921875 74.6610498 -139.46762695 73.95222656 -138.76538086 73.22192383 C-129.32050513 63.44495274 -119.76139927 54.44784472 -108.83081055 46.36987305 C-107.8975293 45.62995117 -106.96424805 44.8900293 -106.00268555 44.12768555 C-80.68367079 24.25438067 -50.55339235 11.28858404 -19.83081055 2.36987305 C-18.11678543 1.85727432 -18.11678543 1.85727432 -16.36813354 1.33432007 C-10.94533076 -0.00213977 -5.55943524 0.0355997 0 0 Z M-63.70581055 156.86987305 C-65.45571414 159.00589218 -67.15348797 161.17655485 -68.83081055 163.36987305 C-69.58620117 164.34956055 -70.3415918 165.32924805 -71.11987305 166.33862305 C-82.63291576 182.12328938 -90.52642846 199.63336168 -95.83081055 218.36987305 C-96.33547852 220.11010742 -96.33547852 220.11010742 -96.8503418 221.88549805 C-103.08577833 246.8272442 -102.45526197 274.16903145 -93.83081055 298.36987305 C-93.60377441 299.03535156 -93.37673828 299.70083008 -93.14282227 300.38647461 C-86.12150948 320.93932095 -75.5631067 338.60892595 -61.83081055 355.36987305 C-61.13858398 356.21936523 -60.44635742 357.06885742 -59.7331543 357.9440918 C-36.68523929 385.06206982 1.52423719 401.94356054 36.5012207 405.01831055 C78.18830952 407.88893756 117.44891269 394.44932501 149.16918945 367.36987305 C149.95165039 366.72276367 150.73411133 366.0756543 151.5402832 365.40893555 C178.2684786 342.71081468 195.43109216 305.00365699 198.85668945 270.55737305 C199.82637133 255.40609365 199.1430087 240.41547892 197.16918945 225.36987305 C197.07750488 224.62833984 196.98582031 223.88680664 196.89135742 223.12280273 C193.89568504 200.95178579 181.22764227 178.46927523 166.73168945 161.74487305 C166.26561279 161.20693115 165.79953613 160.66898926 165.31933594 160.11474609 C164.38054839 159.03441186 163.43867069 157.9567535 162.4934082 156.88208008 C161.27726263 155.49328847 160.0815458 154.08667703 158.88793945 152.6784668 C133.16359696 122.89974424 94.33218238 108.33260493 55.9699707 105.18969727 C12.1540386 102.27906749 -35.3629626 123.56214691 -63.70581055 156.86987305 Z " fill="#FBC19A" transform="translate(206.830810546875,-0.369873046875)"/>
<path d="M0 0 C0.91916702 -0.01460266 1.83833405 -0.02920532 2.78535461 -0.04425049 C11.37711533 -0.17164561 19.9698475 -0.23940067 28.56235886 -0.29209328 C34.31848661 -0.32750102 40.07317605 -0.3798753 45.82861328 -0.47753906 C71.83610624 -0.90816918 95.01499396 -1.088336 119.25878906 9.25634766 C121.25630544 10.05181344 123.25546268 10.84317283 125.25634766 11.63012695 C148.67802931 20.90474462 171.2398126 33.76683668 190.61572266 49.88964844 C192.24261195 51.24289157 193.88479033 52.57574206 195.52832031 53.90869141 C211.38793043 66.95682519 225.95276646 81.59360476 237.87988281 98.33056641 C239.18943738 100.15949105 240.52961055 101.96032238 241.88378906 103.75634766 C257.24092511 124.3265382 269.32681221 148.21431479 277.32803345 172.58195496 C277.98858646 174.47995924 278.71719254 176.35488246 279.49111938 178.20954895 C283.97792519 189.75433754 283.9562404 200.69027269 283.85253906 212.95556641 C283.85082368 215.12498406 283.85089797 217.29440379 283.85266113 219.46382141 C283.85101769 223.98479356 283.83249614 228.50526397 283.80078125 233.02612305 C283.76103594 238.79225 283.75675082 244.55772417 283.76424408 250.32396221 C283.76732699 254.79466121 283.7551475 259.26521615 283.7381134 263.7358799 C283.73113348 265.86113391 283.72795272 267.98640423 283.72880554 270.11166954 C283.72222891 280.88946621 283.67325974 290.91281632 280.25878906 301.25634766 C279.87061832 302.72886308 279.49104802 304.20371725 279.12597656 305.68212891 C278.62752149 307.63537728 278.12871015 309.58840727 277.62207031 311.53955078 C276.8196319 314.70191634 276.20292093 317.74138466 275.82910156 320.98681641 C275.22243432 324.46476494 274.42029963 325.582205 272.25878906 328.25634766 C271.35570466 330.44513165 270.50798675 332.65705369 269.69628906 334.88134766 C262.85485591 352.78973954 251.96245496 369.19458408 240.25878906 384.25634766 C239.57171875 385.15095703 238.88464844 386.04556641 238.17675781 386.96728516 C228.07017563 399.75520547 216.36435274 410.6224294 203.25878906 420.25634766 C201.94974609 421.22314453 201.94974609 421.22314453 200.61425781 422.20947266 C177.16768863 439.02736719 151.44998998 451.01925853 123.25878906 457.25634766 C122.00412842 457.55049561 122.00412842 457.55049561 120.72412109 457.85058594 C93.35382911 464.09454548 62.55326319 463.55728564 35.25878906 457.25634766 C33.84823242 456.9348877 33.84823242 456.9348877 32.40917969 456.60693359 C-21.04921164 444.03817424 -67.1872225 410.48505218 -96.10058594 363.93994141 C-96.64199219 363.05435547 -97.18339844 362.16876953 -97.74121094 361.25634766 C-98.30324219 360.36044922 -98.86527344 359.46455078 -99.44433594 358.54150391 C-109.58368973 341.89378112 -123.03401419 316.2947981 -121.74121094 296.25634766 C-119.23742614 298.76013245 -118.93018455 300.66300917 -117.99121094 304.06884766 C-115.86842477 311.14996647 -113.10249848 317.68239506 -109.74121094 324.25634766 C-109.38784668 324.94921875 -109.03448242 325.64208984 -108.67041016 326.35595703 C-103.58508766 336.19462252 -97.99468407 345.02916654 -90.89355469 353.53369141 C-88.74121094 356.25634766 -88.74121094 356.25634766 -87.74121094 359.25634766 C-87.08121094 359.25634766 -86.42121094 359.25634766 -85.74121094 359.25634766 C-84.50683594 360.58447266 -84.50683594 360.58447266 -82.99121094 362.50634766 C-59.51213639 389.90666971 -21.30273822 405.77761632 14.01660156 408.97900391 C53.92460817 411.9016071 94.83256433 400.65439688 125.64160156 374.53369141 C126.50527344 373.78216797 127.36894531 373.03064453 128.25878906 372.25634766 C129.10183594 371.53576172 129.94488281 370.81517578 130.81347656 370.07275391 C155.0034865 348.93475457 171.6562205 319.67708173 178.25878906 288.25634766 C178.54689453 287.0053125 178.54689453 287.0053125 178.84082031 285.72900391 C184.28943264 260.91625855 182.08153 233.24167135 176.06347656 208.74853516 C175.25878906 205.25634766 175.25878906 205.25634766 175.25878906 202.25634766 C174.59878906 201.92634766 173.93878906 201.59634766 173.25878906 201.25634766 C172.8330246 199.26944681 172.41100358 197.28171199 172.00097656 195.29150391 C164.82900884 165.96193065 146.66342602 135.98019232 125.09082031 115.08837891 C123.3637785 113.3613371 121.80944202 111.57887322 120.25878906 109.69384766 C105.88602908 92.7355118 84.23642423 80.44272828 64.50878906 70.88134766 C62.9649353 70.13111328 62.9649353 70.13111328 61.38989258 69.36572266 C54.49181976 66.10010162 47.53508129 63.53993287 40.25878906 61.25634766 C39.25050049 60.91490723 38.24221191 60.5734668 37.20336914 60.22167969 C16.57901903 53.46032654 -5.10908955 50.78673578 -26.74121094 51.25634766 C-27.54204102 51.26891602 -28.34287109 51.28148437 -29.16796875 51.29443359 C-43.05643278 51.5488391 -56.21484183 53.10027816 -69.74121094 56.25634766 C-70.62244629 56.45856934 -71.50368164 56.66079102 -72.41162109 56.86914062 C-100.64650389 63.50932974 -127.1923769 75.89710061 -149.74121094 94.25634766 C-150.65644531 94.98208984 -151.57167969 95.70783203 -152.51464844 96.45556641 C-161.95044844 104.02799414 -171.07411367 111.86648157 -178.74121094 121.25634766 C-179.17014648 121.76762207 -179.59908203 122.27889648 -180.04101562 122.80566406 C-200.09334646 146.72047839 -214.01227878 174.36880576 -222.74121094 204.25634766 C-223.07121094 204.25634766 -223.40121094 204.25634766 -223.74121094 204.25634766 C-223.10943525 197.8332948 -221.72243402 191.84249486 -219.99121094 185.63134766 C-219.72171631 184.65931396 -219.45222168 183.68728027 -219.17456055 182.68579102 C-212.45426883 158.8110183 -201.59588812 135.84857334 -187.74121094 115.25634766 C-187.09410156 114.26248047 -186.44699219 113.26861328 -185.78027344 112.24462891 C-181.69881762 106.01298084 -177.46834607 100.01352001 -172.74121094 94.25634766 C-171.91363281 93.24314453 -171.08605469 92.22994141 -170.23339844 91.18603516 C-159.02176454 77.6799091 -146.70241221 64.93135974 -132.74121094 54.25634766 C-131.68286475 53.42044148 -130.62562664 52.58313098 -129.56933594 51.74462891 C-122.88313063 46.47159944 -116.00458392 41.70644237 -108.74121094 37.25634766 C-107.80535156 36.64404297 -106.86949219 36.03173828 -105.90527344 35.40087891 C-77.83681879 17.3259486 -42.99229508 4.63781384 -9.74121094 1.25634766 C-7.62732146 -0.85754182 -2.92385704 0.03517073 0 0 Z " fill="#3597DA" transform="translate(228.7412109375,-0.25634765625)"/>
<path d="M0 0 C0.8644725 -0.00953201 1.72894501 -0.01906403 2.61961365 -0.02888489 C3.54572952 -0.02797348 4.4718454 -0.02706207 5.42602539 -0.02612305 C6.38513321 -0.03040817 7.34424103 -0.0346933 8.33241272 -0.03910828 C10.35897025 -0.04484614 12.38554837 -0.04535584 14.41210938 -0.04101562 C17.50890316 -0.03785687 20.60474038 -0.0613176 23.70141602 -0.08666992 C25.67211794 -0.08894312 27.64282242 -0.08964632 29.61352539 -0.08862305 C30.99966286 -0.10243767 30.99966286 -0.10243767 32.4138031 -0.11653137 C37.28442147 -0.08156457 40.64744631 0.06985482 44.58618164 3.2746582 C48.15140825 8.44423679 47.74384973 15.24162591 47.75415039 21.28637695 C47.7584758 22.04768921 47.76280121 22.80900146 47.76725769 23.59338379 C47.7773356 26.04970593 47.77744587 28.5058196 47.77368164 30.9621582 C47.77177826 32.22076157 47.77177826 32.22076157 47.76983643 33.50479126 C47.66433397 69.93845039 42.13385775 112.65316491 15.19946289 139.72387695 C14.33708008 140.56563477 13.47469727 141.40739258 12.58618164 142.2746582 C11.58651367 143.30526367 11.58651367 143.30526367 10.56665039 144.35668945 C1.26322296 153.34673827 -11.83337985 157.69105912 -24.60131836 157.5871582 C-25.33817871 157.58151855 -26.07503906 157.57587891 -26.83422852 157.57006836 C-41.95052321 157.23953236 -54.1474188 152.15816761 -65.12866211 141.7512207 C-71.93750289 134.37206676 -75.98947183 125.61703916 -79.41381836 116.2746582 C-79.7734668 115.33750977 -80.13311523 114.40036133 -80.50366211 113.43481445 C-90.36046844 85.12904231 -91.77480464 36.60335128 -80.41381836 8.2746582 C-78.20985546 5.43980574 -76.8865688 4.48970124 -73.3371582 3.97143555 C-70.74361372 3.83790126 -68.19686763 3.87697564 -65.60131836 3.9621582 C-64.64878174 3.98052734 -63.69624512 3.99889648 -62.71484375 4.01782227 C-60.67871663 4.06216863 -58.64279026 4.11668693 -56.60717773 4.18041992 C-53.33950142 4.27685135 -50.07318827 4.32656743 -46.80444336 4.37231445 C-44.65334669 4.42070971 -42.50230091 4.47143156 -40.35131836 4.5246582 C-38.82704224 4.54532349 -38.82704224 4.54532349 -37.27197266 4.56640625 C-33.07328433 4.70989362 -30.08895677 4.94004643 -26.29272461 6.8215332 C-22.72435099 11.48044928 -23.20978959 16.4761287 -23.90209961 22.0168457 C-24.16785877 23.72920111 -24.44301227 25.44011832 -24.72631836 27.1496582 C-25.0117416 29.03614022 -25.2955735 30.92286364 -25.57788086 32.80981445 C-25.96854212 35.36860142 -26.35994459 37.92724147 -26.7565918 40.48510742 C-29.78710051 60.66752086 -31.55467282 84.89233895 -24.41381836 104.2746582 C-22.46168802 104.14398943 -22.46168802 104.14398943 -20.41381836 103.2746582 C-16.43856769 96.3414422 -15.37931641 87.81834125 -14.22631836 80.0246582 C-14.06196289 79.00758789 -13.89760742 77.99051758 -13.72827148 76.94262695 C-11.10859652 59.99428447 -11.3290814 43.14684043 -11.58520508 26.05395508 C-11.62746695 23.06238447 -11.65092831 20.07113245 -11.67163086 17.0793457 C-11.69956223 15.71215897 -11.69956223 15.71215897 -11.72805786 14.31735229 C-11.74752091 9.5159933 -11.6943998 6.08183255 -8.41381836 2.2746582 C-5.52218597 0.52532836 -3.36003637 0.02043179 0 0 Z " fill="#34425B" transform="translate(209.413818359375,175.725341796875)"/>
<path d="M0 0 C1.97419922 -0.05607422 1.97419922 -0.05607422 3.98828125 -0.11328125 C8.55182991 0.41198465 10.36495824 1.11180039 13.6875 4.3125 C15.50758828 7.8280647 16.56548658 11.52523876 17.6875 15.3125 C18.10377894 16.66823804 18.52099096 18.0236898 18.93896484 19.37890625 C20.45635572 24.34548031 21.91593813 29.32853999 23.375 34.3125 C23.93283289 36.20877254 24.49077878 38.10501185 25.04882812 40.0012207 C30.72854183 59.33499467 36.298827 78.70080126 41.86206055 98.06835938 C42.20907516 99.27581818 42.55608978 100.48327698 42.91362 101.72732544 C43.58743808 104.07388453 44.26008751 106.42077957 44.93147278 108.76803589 C46.34961237 113.7162622 47.78062385 118.65751296 49.296875 123.57666016 C49.65410645 124.74555534 49.65410645 124.74555534 50.01855469 125.93806458 C50.62925067 127.92387127 51.25152016 129.90610931 51.875 131.88793945 C52.73898567 135.52950405 52.98548737 138.58398944 52.6875 142.3125 C48.17115706 148.29001271 42.41651222 149.34555164 35.36791992 150.32707214 C34.58650635 150.42925552 33.80509277 150.5314389 33 150.63671875 C32.17927002 150.74724075 31.35854004 150.85776276 30.51293945 150.97163391 C28.78539392 151.20228884 27.05743556 151.4298705 25.32910156 151.65454102 C22.69439109 151.99909881 20.06213954 152.35934283 17.4296875 152.72070312 C15.74491791 152.94366437 14.06002562 153.16570077 12.375 153.38671875 C11.20287964 153.54910286 11.20287964 153.54910286 10.00708008 153.71476746 C5.68222975 154.26181024 1.96920977 154.43756851 -2.3125 153.3125 C-6.73211073 149.85228379 -8.37770767 146.38906484 -10.125 141.125 C-10.75341797 139.27841797 -10.75341797 139.27841797 -11.39453125 137.39453125 C-12.3125 134.3125 -12.3125 134.3125 -12.3125 132.3125 C-14.27075873 132.28555149 -16.22912226 132.26612782 -18.1875 132.25 C-19.27804687 132.23839844 -20.36859375 132.22679687 -21.4921875 132.21484375 C-24.26427546 132.11505697 -24.26427546 132.11505697 -26.3125 133.3125 C-27.34855563 136.60085048 -28.26948799 139.89045196 -29.10546875 143.234375 C-30.64267176 148.69998571 -32.39977973 151.33082509 -37.3125 154.3125 C-40.59765625 154.6875 -40.59765625 154.6875 -44.375 154.3125 C-45.0767334 154.24853027 -45.7784668 154.18456055 -46.50146484 154.11865234 C-48.1348372 153.96483089 -49.76697463 153.79756623 -51.39794922 153.62011719 C-54.80514918 153.26050319 -58.21584251 152.96283152 -61.62890625 152.6640625 C-64.23196454 152.42396589 -66.83482996 152.18176931 -69.4375 151.9375 C-71.32287476 151.76734375 -71.32287476 151.76734375 -73.24633789 151.59375 C-84.91694093 150.41532858 -84.91694093 150.41532858 -90.3125 147.3125 C-92.79960391 143.58184413 -92.58318786 141.73742979 -92.3125 137.3125 C-91.6484375 134.23779297 -91.6484375 134.23779297 -90.6875 131.0546875 C-90.31898926 129.81702637 -89.95047852 128.57936523 -89.57080078 127.30419922 C-89.15152808 125.93191698 -88.73208809 124.55968584 -88.3125 123.1875 C-87.87010891 121.71525329 -87.42856935 120.24275048 -86.98779297 118.77001953 C-85.72553256 114.56221051 -84.45062943 110.35831243 -83.17419434 106.15478516 C-81.61176208 101.00112704 -80.06065167 95.844055 -78.5078125 90.6875 C-76.46580684 83.90745343 -74.42088169 77.12833777 -72.36401367 70.3527832 C-69.11977697 59.66042046 -65.90396931 48.96242963 -62.79296875 38.23046875 C-61.98945018 35.47838798 -61.18491347 32.72660692 -60.38006592 29.97491455 C-59.88234217 28.26110495 -59.38990317 26.54575043 -58.90313721 24.82879639 C-58.23625995 22.47690018 -57.55168252 20.13082638 -56.86328125 17.78515625 C-56.67742966 17.10954147 -56.49157806 16.4339267 -56.3000946 15.73783875 C-54.83804227 10.84984311 -52.77903327 7.93801752 -49.3125 4.3125 C-43.88716912 1.49723753 -37.61344076 1.90146581 -31.625 1.75 C-24.66837081 1.54449304 -17.77879665 1.2135244 -10.85083008 0.54174805 C-7.22545111 0.21432371 -3.64073601 0.06842135 0 0 Z " fill="#34435B" transform="translate(333.3125,171.6875)"/>
<path d="M0 0 C0.68288086 0.23589844 1.36576172 0.47179687 2.06933594 0.71484375 C23.03599997 8.13333357 41.10272349 20.64280821 57 36 C57.75925781 36.71929687 58.51851563 37.43859375 59.30078125 38.1796875 C62.83717792 41.59560572 62.83717792 41.59560572 64 43 C64 43.66 64 44.32 64 45 C64.66 45 65.32 45 66 45 C67.95356776 47.29186108 69.77051223 49.58552058 71.5625 52 C72.36506226 53.07846191 72.36506226 53.07846191 73.18383789 54.17871094 C81.06407545 64.98038522 87.28477128 76.48924238 92 89 C92.66 89 93.32 89 94 89 C94.12503906 89.5053125 94.25007813 90.010625 94.37890625 90.53125 C94.87742367 92.51277835 95.3879362 94.49128721 95.90234375 96.46875 C106.74821567 138.46187531 104.23696317 183.53149141 83 222 C79.92128161 227.17633379 76.52591665 232.12041027 73 237 C72.40445312 237.82886719 71.80890625 238.65773438 71.1953125 239.51171875 C45.43765183 273.8347259 7.89310466 294.30832615 -34.203125 300.46875 C-37.14374157 300.76445446 -40.04538712 300.91702552 -43 301 C-43.68497559 301.02046387 -44.36995117 301.04092773 -45.07568359 301.06201172 C-88.13287906 302.17786536 -128.51569604 287.59487158 -160 258 C-160.58104492 257.45408203 -161.16208984 256.90816406 -161.76074219 256.34570312 C-163.21658848 254.94011718 -164.6139817 253.47448755 -166 252 C-166 251.34 -166 250.68 -166 250 C-166.66 250 -167.32 250 -168 250 C-169.65374895 248.09833987 -171.17878105 246.19996765 -172.6875 244.1875 C-173.13520752 243.59654541 -173.58291504 243.00559082 -174.04418945 242.39672852 C-178.00181199 237.11256822 -181.58668207 231.65102755 -185 226 C-185.86044922 224.63681641 -185.86044922 224.63681641 -186.73828125 223.24609375 C-193.59477527 212.07198488 -198.72359455 199.69997162 -202 187 C-202.66 187 -203.32 187 -204 187 C-204.48225635 183.54209039 -204.96022208 180.08359999 -205.4375 176.625 C-205.57220703 175.65949219 -205.70691406 174.69398438 -205.84570312 173.69921875 C-211.78905094 130.50122731 -203.40823209 88.79542295 -177.1015625 53.44921875 C-164.16072991 36.89023501 -149.67532766 24.25205591 -132 13 C-130.94554687 12.31550781 -129.89109375 11.63101563 -128.8046875 10.92578125 C-120.37881514 5.70361802 -111.32198807 2.25960379 -102 -1 C-100.95368408 -1.36786621 -100.95368408 -1.36786621 -99.88623047 -1.74316406 C-67.29218719 -12.92670838 -32.26295823 -11.18560518 0 0 Z M-165.875 47.5 C-167.62490359 49.63601913 -169.32267742 51.8066818 -171 54 C-171.75539063 54.9796875 -172.51078125 55.959375 -173.2890625 56.96875 C-184.80210521 72.75341633 -192.69561791 90.26348863 -198 109 C-198.50466797 110.74023438 -198.50466797 110.74023438 -199.01953125 112.515625 C-205.25496779 137.45737115 -204.62445142 164.7991584 -196 189 C-195.77296387 189.66547852 -195.54592773 190.33095703 -195.31201172 191.01660156 C-188.29069893 211.56944791 -177.73229616 229.2390529 -164 246 C-163.30777344 246.84949219 -162.61554688 247.69898438 -161.90234375 248.57421875 C-138.85442874 275.69219678 -100.64495226 292.57368749 -65.66796875 295.6484375 C-23.98087993 298.51906451 15.27972323 285.07945196 47 258 C47.78246094 257.35289062 48.56492187 256.70578125 49.37109375 256.0390625 C76.09928914 233.34094163 93.2619027 195.63378394 96.6875 161.1875 C97.65718188 146.0362206 96.97381925 131.04560588 95 116 C94.90831543 115.2584668 94.81663086 114.51693359 94.72216797 113.75292969 C91.72649558 91.58191274 79.05845281 69.09940218 64.5625 52.375 C64.09642334 51.83705811 63.63034668 51.29911621 63.15014648 50.74487305 C62.21135893 49.66453881 61.26948123 48.58688045 60.32421875 47.51220703 C59.10807318 46.12341543 57.91235635 44.71680398 56.71875 43.30859375 C30.99440751 13.5298712 -7.83700707 -1.03726812 -46.19921875 -4.18017578 C-90.01515086 -7.09080556 -137.53215205 14.19227386 -165.875 47.5 Z " fill="#FEFEFE" transform="translate(309,109)"/>
<path d="M0 0 C0.8644725 -0.00953201 1.72894501 -0.01906403 2.61961365 -0.02888489 C3.54572952 -0.02797348 4.4718454 -0.02706207 5.42602539 -0.02612305 C6.38513321 -0.03040817 7.34424103 -0.0346933 8.33241272 -0.03910828 C10.35897025 -0.04484614 12.38554837 -0.04535584 14.41210938 -0.04101562 C17.50890316 -0.03785687 20.60474038 -0.0613176 23.70141602 -0.08666992 C25.67211794 -0.08894312 27.64282242 -0.08964632 29.61352539 -0.08862305 C30.99966286 -0.10243767 30.99966286 -0.10243767 32.4138031 -0.11653137 C37.28442147 -0.08156457 40.64744631 0.06985482 44.58618164 3.2746582 C48.15140825 8.44423679 47.74384973 15.24162591 47.75415039 21.28637695 C47.7584758 22.04768921 47.76280121 22.80900146 47.76725769 23.59338379 C47.7773356 26.04970593 47.77744587 28.5058196 47.77368164 30.9621582 C47.77177826 32.22076157 47.77177826 32.22076157 47.76983643 33.50479126 C47.66433397 69.93845039 42.13385775 112.65316491 15.19946289 139.72387695 C14.33708008 140.56563477 13.47469727 141.40739258 12.58618164 142.2746582 C11.58651367 143.30526367 11.58651367 143.30526367 10.56665039 144.35668945 C1.26322296 153.34673827 -11.83337985 157.69105912 -24.60131836 157.5871582 C-25.33817871 157.58151855 -26.07503906 157.57587891 -26.83422852 157.57006836 C-41.95052321 157.23953236 -54.1474188 152.15816761 -65.12866211 141.7512207 C-71.93750289 134.37206676 -75.98947183 125.61703916 -79.41381836 116.2746582 C-79.7734668 115.33750977 -80.13311523 114.40036133 -80.50366211 113.43481445 C-90.36046844 85.12904231 -91.77480464 36.60335128 -80.41381836 8.2746582 C-78.20985546 5.43980574 -76.8865688 4.48970124 -73.3371582 3.97143555 C-70.74361372 3.83790126 -68.19686763 3.87697564 -65.60131836 3.9621582 C-64.64878174 3.98052734 -63.69624512 3.99889648 -62.71484375 4.01782227 C-60.67871663 4.06216863 -58.64279026 4.11668693 -56.60717773 4.18041992 C-53.33950142 4.27685135 -50.07318827 4.32656743 -46.80444336 4.37231445 C-44.65334669 4.42070971 -42.50230091 4.47143156 -40.35131836 4.5246582 C-38.82704224 4.54532349 -38.82704224 4.54532349 -37.27197266 4.56640625 C-33.07328433 4.70989362 -30.08895677 4.94004643 -26.29272461 6.8215332 C-22.72435099 11.48044928 -23.20978959 16.4761287 -23.90209961 22.0168457 C-24.16785877 23.72920111 -24.44301227 25.44011832 -24.72631836 27.1496582 C-25.0117416 29.03614022 -25.2955735 30.92286364 -25.57788086 32.80981445 C-25.96854212 35.36860142 -26.35994459 37.92724147 -26.7565918 40.48510742 C-29.78710051 60.66752086 -31.55467282 84.89233895 -24.41381836 104.2746582 C-22.46168802 104.14398943 -22.46168802 104.14398943 -20.41381836 103.2746582 C-16.43856769 96.3414422 -15.37931641 87.81834125 -14.22631836 80.0246582 C-14.06196289 79.00758789 -13.89760742 77.99051758 -13.72827148 76.94262695 C-11.10859652 59.99428447 -11.3290814 43.14684043 -11.58520508 26.05395508 C-11.62746695 23.06238447 -11.65092831 20.07113245 -11.67163086 17.0793457 C-11.69956223 15.71215897 -11.69956223 15.71215897 -11.72805786 14.31735229 C-11.74752091 9.5159933 -11.6943998 6.08183255 -8.41381836 2.2746582 C-5.52218597 0.52532836 -3.36003637 0.02043179 0 0 Z M-6.41381836 6.2746582 C-6.50165219 7.69427252 -6.52075907 9.11822872 -6.51147461 10.54052734 C-6.50817139 11.44980484 -6.50486816 12.35908234 -6.50146484 13.2959137 C-6.48901733 14.78779457 -6.48901733 14.78779457 -6.47631836 16.30981445 C-6.47253174 17.33586288 -6.46874512 18.36191132 -6.46484375 19.41905212 C-6.44852614 23.81766681 -6.42083224 28.21618926 -6.39331055 32.61474609 C-6.29672115 49.4810334 -6.37369059 65.98224826 -9.28881836 82.6496582 C-9.44995117 83.63836914 -9.61108398 84.62708008 -9.77709961 85.64575195 C-12.76239113 103.21037417 -12.76239113 103.21037417 -18.41381836 110.2746582 C-21.41381836 112.2746582 -21.41381836 112.2746582 -23.91381836 112.2121582 C-27.27823671 110.95050132 -27.88707687 109.47354513 -29.41381836 106.2746582 C-33.88437252 95.79955732 -33.81151732 84.72533199 -33.78881836 73.5246582 C-33.78993622 72.74540985 -33.79105408 71.9661615 -33.79220581 71.16329956 C-33.7816564 56.08742538 -32.13605552 41.56061411 -29.87133789 26.67358398 C-29.13805001 21.22596718 -28.75520194 15.75902243 -28.41381836 10.2746582 C-47.71962545 9.45319996 -47.71962545 9.45319996 -67.03881836 9.1496582 C-67.87832031 9.14514648 -68.71782227 9.14063477 -69.58276367 9.13598633 C-73.30135162 8.79228079 -73.30135162 8.79228079 -76.41381836 10.2746582 C-77.61705996 16.90967619 -78.5142244 23.59246483 -79.41381836 30.2746582 C-79.5240332 31.08467285 -79.63424805 31.8946875 -79.74780273 32.72924805 C-83.87800908 64.22535984 -85.39967929 105.02585205 -66.01928711 132.19262695 C-65.48948242 132.87969727 -64.95967773 133.56676758 -64.41381836 134.2746582 C-63.65069336 135.3471582 -62.88756836 136.4196582 -62.10131836 137.5246582 C-52.10739797 147.75099534 -39.38303041 152.34861619 -25.22631836 152.5246582 C-18.81556263 152.52076582 -13.34558722 151.73708998 -7.41381836 149.2746582 C-6.59526367 148.94594727 -5.77670898 148.61723633 -4.93334961 148.27856445 C12.68388607 140.38495033 23.57000716 123.00363997 30.46899414 105.6730957 C39.67848619 81.29995339 42.73956696 56.46993089 42.77368164 30.5871582 C42.77485992 29.89357208 42.77603821 29.19998596 42.7772522 28.48538208 C43.7386562 16.2491924 43.7386562 16.2491924 40.58618164 5.2746582 C39.14877811 5.17651834 37.70661837 5.1466754 36.26586914 5.14526367 C35.34821777 5.14211151 34.43056641 5.13895935 33.48510742 5.13571167 C31.98826416 5.13874802 31.98826416 5.13874802 30.46118164 5.1418457 C28.93533447 5.14041061 28.93533447 5.14041061 27.37866211 5.13894653 C25.22322528 5.13826459 23.06778642 5.14011985 20.91235352 5.14428711 C17.60045793 5.14963515 14.28869797 5.14434257 10.97680664 5.13793945 C8.88826467 5.13860023 6.79972279 5.13988139 4.71118164 5.1418457 C3.71328613 5.13982147 2.71539062 5.13779724 1.68725586 5.13571167 C0.76960449 5.13886383 -0.14804688 5.14201599 -1.09350586 5.14526367 C-1.9054541 5.14605927 -2.71740234 5.14685486 -3.55395508 5.14767456 C-5.42927589 5.07101631 -5.42927589 5.07101631 -6.41381836 6.2746582 Z " fill="#FEFEFE" transform="translate(209.413818359375,175.725341796875)"/>
<path d="M0 0 C1.97419922 -0.05607422 1.97419922 -0.05607422 3.98828125 -0.11328125 C8.55182991 0.41198465 10.36495824 1.11180039 13.6875 4.3125 C15.50758828 7.8280647 16.56548658 11.52523876 17.6875 15.3125 C18.10377894 16.66823804 18.52099096 18.0236898 18.93896484 19.37890625 C20.45635572 24.34548031 21.91593813 29.32853999 23.375 34.3125 C23.93283289 36.20877254 24.49077878 38.10501185 25.04882812 40.0012207 C30.72854183 59.33499467 36.298827 78.70080126 41.86206055 98.06835938 C42.20907516 99.27581818 42.55608978 100.48327698 42.91362 101.72732544 C43.58743808 104.07388453 44.26008751 106.42077957 44.93147278 108.76803589 C46.34961237 113.7162622 47.78062385 118.65751296 49.296875 123.57666016 C49.65410645 124.74555534 49.65410645 124.74555534 50.01855469 125.93806458 C50.62925067 127.92387127 51.25152016 129.90610931 51.875 131.88793945 C52.73898567 135.52950405 52.98548737 138.58398944 52.6875 142.3125 C48.17115706 148.29001271 42.41651222 149.34555164 35.36791992 150.32707214 C34.58650635 150.42925552 33.80509277 150.5314389 33 150.63671875 C32.17927002 150.74724075 31.35854004 150.85776276 30.51293945 150.97163391 C28.78539392 151.20228884 27.05743556 151.4298705 25.32910156 151.65454102 C22.69439109 151.99909881 20.06213954 152.35934283 17.4296875 152.72070312 C15.74491791 152.94366437 14.06002562 153.16570077 12.375 153.38671875 C11.20287964 153.54910286 11.20287964 153.54910286 10.00708008 153.71476746 C5.68222975 154.26181024 1.96920977 154.43756851 -2.3125 153.3125 C-6.73211073 149.85228379 -8.37770767 146.38906484 -10.125 141.125 C-10.75341797 139.27841797 -10.75341797 139.27841797 -11.39453125 137.39453125 C-12.3125 134.3125 -12.3125 134.3125 -12.3125 132.3125 C-14.27075873 132.28555149 -16.22912226 132.26612782 -18.1875 132.25 C-19.27804687 132.23839844 -20.36859375 132.22679687 -21.4921875 132.21484375 C-24.26427546 132.11505697 -24.26427546 132.11505697 -26.3125 133.3125 C-27.34855563 136.60085048 -28.26948799 139.89045196 -29.10546875 143.234375 C-30.64267176 148.69998571 -32.39977973 151.33082509 -37.3125 154.3125 C-40.59765625 154.6875 -40.59765625 154.6875 -44.375 154.3125 C-45.0767334 154.24853027 -45.7784668 154.18456055 -46.50146484 154.11865234 C-48.1348372 153.96483089 -49.76697463 153.79756623 -51.39794922 153.62011719 C-54.80514918 153.26050319 -58.21584251 152.96283152 -61.62890625 152.6640625 C-64.23196454 152.42396589 -66.83482996 152.18176931 -69.4375 151.9375 C-71.32287476 151.76734375 -71.32287476 151.76734375 -73.24633789 151.59375 C-84.91694093 150.41532858 -84.91694093 150.41532858 -90.3125 147.3125 C-92.79960391 143.58184413 -92.58318786 141.73742979 -92.3125 137.3125 C-91.6484375 134.23779297 -91.6484375 134.23779297 -90.6875 131.0546875 C-90.31898926 129.81702637 -89.95047852 128.57936523 -89.57080078 127.30419922 C-89.15152808 125.93191698 -88.73208809 124.55968584 -88.3125 123.1875 C-87.87010891 121.71525329 -87.42856935 120.24275048 -86.98779297 118.77001953 C-85.72553256 114.56221051 -84.45062943 110.35831243 -83.17419434 106.15478516 C-81.61176208 101.00112704 -80.06065167 95.844055 -78.5078125 90.6875 C-76.46580684 83.90745343 -74.42088169 77.12833777 -72.36401367 70.3527832 C-69.11977697 59.66042046 -65.90396931 48.96242963 -62.79296875 38.23046875 C-61.98945018 35.47838798 -61.18491347 32.72660692 -60.38006592 29.97491455 C-59.88234217 28.26110495 -59.38990317 26.54575043 -58.90313721 24.82879639 C-58.23625995 22.47690018 -57.55168252 20.13082638 -56.86328125 17.78515625 C-56.67742966 17.10954147 -56.49157806 16.4339267 -56.3000946 15.73783875 C-54.83804227 10.84984311 -52.77903327 7.93801752 -49.3125 4.3125 C-43.88716912 1.49723753 -37.61344076 1.90146581 -31.625 1.75 C-24.66837081 1.54449304 -17.77879665 1.2135244 -10.85083008 0.54174805 C-7.22545111 0.21432371 -3.64073601 0.06842135 0 0 Z M-10.98828125 5.79296875 C-18.47758625 6.45273666 -25.97042388 6.64757102 -33.484375 6.83007812 C-41.21043914 6.83044363 -41.21043914 6.83044363 -48.3125 9.3125 C-49.66546705 12.00590663 -50.50920463 14.20427714 -51.3125 17.0625 C-51.55685791 17.85889893 -51.80121582 18.65529785 -52.05297852 19.47583008 C-52.83928326 22.07966302 -53.5822802 24.69241204 -54.3125 27.3125 C-54.55468262 28.18116699 -54.79686523 29.04983398 -55.04638672 29.94482422 C-56.04399414 33.55473699 -57.0277423 37.16804619 -57.99438477 40.78637695 C-60.82942189 51.37814893 -64.07618705 61.83788351 -67.3125 72.3125 C-71.72907956 86.65054119 -76.02737236 101.02301326 -80.28948975 115.40762329 C-80.88598299 117.42018492 -81.48318647 119.43253618 -82.08111572 121.44467163 C-82.92874401 124.29838501 -83.7733751 127.1529688 -84.6171875 130.0078125 C-84.87417419 130.87147934 -85.13116089 131.73514618 -85.39593506 132.62498474 C-86.53813351 136.50088126 -87.62326563 140.32427934 -88.3125 144.3125 C-78.86367485 145.76030385 -69.43059424 146.87633269 -59.9140625 147.74511719 C-57.78598926 147.93992687 -55.65862897 148.14151288 -53.53125 148.34375 C-52.15628686 148.47175071 -50.78128807 148.5993692 -49.40625 148.7265625 C-48.18615234 148.8395166 -46.96605469 148.9524707 -45.70898438 149.06884766 C-42.56160819 149.29462982 -39.4664292 149.3576766 -36.3125 149.3125 C-36.16627197 148.68158447 -36.02004395 148.05066895 -35.86938477 147.40063477 C-35.20832026 144.55787383 -34.54173638 141.71643575 -33.875 138.875 C-33.64490234 137.88177734 -33.41480469 136.88855469 -33.17773438 135.86523438 C-32.95537109 134.92099609 -32.73300781 133.97675781 -32.50390625 133.00390625 C-32.29967041 132.12935791 -32.09543457 131.25480957 -31.88500977 130.35375977 C-31.3125 128.3125 -31.3125 128.3125 -30.3125 127.3125 C-28.67993242 127.15535346 -27.04114662 127.06164586 -25.40234375 126.99609375 C-24.41298828 126.95419922 -23.42363281 126.91230469 -22.40429688 126.86914062 C-21.36337891 126.82982422 -20.32246094 126.79050781 -19.25 126.75 C-18.20521484 126.70681641 -17.16042969 126.66363281 -16.08398438 126.61914062 C-13.49363116 126.51268775 -10.90317814 126.4106724 -8.3125 126.3125 C-8.13074219 127.06273437 -7.94898438 127.81296875 -7.76171875 128.5859375 C-6.13110607 135.22545784 -4.34846885 141.78584807 -2.3125 148.3125 C2.72111412 149.83612176 7.3822539 148.90019167 12.4765625 148.16796875 C13.41680267 148.03812088 14.35704285 147.90827301 15.32577515 147.77449036 C17.30824974 147.49851042 19.29014804 147.21836277 21.27148438 146.93432617 C24.30703836 146.50078005 27.34461215 146.08446765 30.3828125 145.66992188 C32.31004058 145.39946691 34.23712927 145.12801648 36.1640625 144.85546875 C37.07346588 144.73141159 37.98286926 144.60735443 38.91983032 144.47953796 C39.7643576 144.35633682 40.60888489 144.23313568 41.47900391 144.10620117 C42.22115143 144.00103683 42.96329895 143.8958725 43.72793579 143.78752136 C45.99189794 143.35733754 45.99189794 143.35733754 48.6875 141.3125 C45.60716704 129.63349564 42.34799471 118.03080752 38.75 106.5 C35.77807149 96.97023207 32.9905153 87.40693123 30.33447266 77.78466797 C28.18928753 70.03647806 25.92938898 62.32722903 23.625 54.625 C21.12261194 46.25591549 18.70880424 37.87231131 16.4375 29.4375 C14.05964325 16.48396651 14.05964325 16.48396651 8.6875 5.3125 C6.58539194 5.21054326 4.47957414 5.18289984 2.375 5.1875 C1.22386719 5.18492187 0.07273437 5.18234375 -1.11328125 5.1796875 C-4.42198642 5.24018248 -7.69241429 5.49962359 -10.98828125 5.79296875 Z " fill="#FEFEFE" transform="translate(333.3125,171.6875)"/>
<path d="M0 0 C2.81607524 2.81607524 2.5873025 5.77030143 2.9375 9.5625 C8.68086636 63.53754614 31.42954127 111.34982143 67 152 C67.44601563 152.51062988 67.89203125 153.02125977 68.3515625 153.54736328 C78.88007508 165.51892857 91.55691599 179.77845799 106 187 C106 187.66 106 188.32 106 189 C107.03253906 189.36351562 107.03253906 189.36351562 108.0859375 189.734375 C111.51986458 191.22578569 114.52329824 193.18091394 117.625 195.25 C123.59992096 199.15464277 129.65032523 202.72895542 136 206 C136.59538574 206.3079248 137.19077148 206.61584961 137.80419922 206.93310547 C166.22992046 221.57839157 197.73636426 232.81467034 229.91796875 234.65625 C230.94857422 234.82640625 230.94857422 234.82640625 232 235 C232.33 235.66 232.66 236.32 233 237 C201.14562492 239.01747479 174.75074022 231.74018669 146 218 C145.28118652 217.66258789 144.56237305 217.32517578 143.82177734 216.97753906 C133.83691008 212.26877949 124.34294548 206.87164296 115 201 C113.49373047 200.06414062 113.49373047 200.06414062 111.95703125 199.109375 C89.8377058 184.90046958 69.03667306 165.80594386 53 145 C52.20335937 143.99710938 51.40671875 142.99421875 50.5859375 141.9609375 C39.94037845 128.4856774 30.97310305 114.20166135 23 99 C22.6198877 98.28457031 22.23977539 97.56914062 21.84814453 96.83203125 C14.02169249 81.91932957 8.91513094 66.05079169 4 50 C3.72720215 49.14583496 3.4544043 48.29166992 3.17333984 47.41162109 C-1.61076679 32.13552021 -0.37873515 15.82238905 0 0 Z " fill="#FEFEFE" transform="translate(0,275)"/>
<path d="M0 0 C1.73443359 0.01353516 1.73443359 0.01353516 3.50390625 0.02734375 C6.33615647 0.05075078 9.16796619 0.08354005 12 0.125 C11.67 0.785 11.34 1.445 11 2.125 C8.9453125 2.6171875 8.9453125 2.6171875 6.125 3 C-23.58105943 7.63177714 -51.86000958 17.20312536 -78 32.125 C-78.82242188 32.59292969 -79.64484375 33.06085937 -80.4921875 33.54296875 C-92.35942292 40.48821964 -103.53479939 48.20409117 -114 57.125 C-115.00289063 57.94355469 -116.00578125 58.76210938 -117.0390625 59.60546875 C-129.61373618 69.90805294 -141.00511963 81.29988618 -151 94.125 C-151.66128906 94.9190625 -152.32257813 95.713125 -153.00390625 96.53125 C-174.56768694 122.52594453 -189.68593137 155.11390201 -199 187.375 C-199.31533691 188.4470166 -199.63067383 189.5190332 -199.95556641 190.62353516 C-201.43874409 195.95367855 -202.19662038 199.64048993 -201 205.125 C-201.30228516 205.87724854 -201.60457031 206.62949707 -201.91601562 207.40454102 C-203.11717099 210.41906224 -203.46655037 213.00504495 -203.78125 216.23046875 C-203.90113281 217.37837891 -204.02101562 218.52628906 -204.14453125 219.70898438 C-204.3826553 222.12293421 -204.61962356 224.53699833 -204.85546875 226.95117188 C-204.97535156 228.09521484 -205.09523437 229.23925781 -205.21875 230.41796875 C-205.3724707 231.98840942 -205.3724707 231.98840942 -205.52929688 233.59057617 C-206 236.125 -206 236.125 -208 238.125 C-209.24182901 196.19257384 -209.24182901 196.19257384 -202 176.125 C-201.45148061 174.49143665 -200.90459144 172.85732495 -200.359375 171.22265625 C-188.0581237 135.38999715 -168.32833649 102.37077447 -142 75.125 C-141.3184082 74.41617676 -140.63681641 73.70735352 -139.93457031 72.97705078 C-130.48969459 63.20007969 -120.93058873 54.20297167 -110 46.125 C-109.06671875 45.38507812 -108.1334375 44.64515625 -107.171875 43.8828125 C-81.75287676 23.93102897 -51.72612464 11.30717359 -21 2.125 C-19.92177979 1.77598633 -19.92177979 1.77598633 -18.82177734 1.41992188 C-12.65286375 -0.41386209 -6.38172107 -0.09503136 0 0 Z " fill="#FEFEFE" transform="translate(208,-0.125)"/>
<path d="M0 0 C0.33 0 0.66 0 1 0 C1.5635876 14.27177219 1.52220983 27.17155342 -3.21728516 40.72949219 C-4.05584825 43.16200521 -4.81856411 45.61083989 -5.57421875 48.0703125 C-14.17855456 75.63227245 -27.44141726 101.10525858 -45 124 C-45.91351996 125.22078617 -46.82631545 126.44211489 -47.73828125 127.6640625 C-61.90771709 146.41264529 -78.956635 163.2350179 -98 177 C-98.58942383 177.42990234 -99.17884766 177.85980469 -99.78613281 178.30273438 C-111.00727807 186.43227906 -122.80600783 193.4338307 -135 200 C-135.79374023 200.4316748 -136.58748047 200.86334961 -137.40527344 201.30810547 C-153.66387896 210.00812401 -171.18227945 215.36383839 -188.68798828 220.94360352 C-190.79619397 221.61603504 -192.90070825 222.30023608 -195 223 C-197.4410776 223.0845387 -199.85259213 223.11605786 -202.29296875 223.09765625 C-203.35201164 223.09553383 -203.35201164 223.09553383 -204.43244934 223.09336853 C-206.68417626 223.08777764 -208.93580321 223.07522688 -211.1875 223.0625 C-212.71549335 223.05748382 -214.24348827 223.05292112 -215.77148438 223.04882812 C-219.51436135 223.0378112 -223.25716373 223.02055287 -227 223 C-226.505 222.01 -226.505 222.01 -226 221 C-224.01318359 220.56103516 -224.01318359 220.56103516 -221.3984375 220.2890625 C-220.44106689 220.18102295 -219.48369629 220.0729834 -218.49731445 219.96166992 C-217.46695068 219.85056885 -216.43658691 219.73946777 -215.375 219.625 C-205.8962489 218.48998981 -197.14100157 216.79464159 -188 214 C-186.33127023 213.51506132 -184.66195918 213.0321201 -182.9921875 212.55078125 C-174.4948835 210.08159331 -166.10084138 207.58987723 -158 204 C-156.58614428 203.39534959 -155.17205783 202.79123857 -153.7578125 202.1875 C-146.33601493 198.98766461 -139.11326949 195.76882265 -132.27734375 191.421875 C-129.78304869 189.86454498 -127.22544742 188.49715098 -124.625 187.125 C-108.63257828 178.46524984 -94.61396641 166.93934618 -81 155 C-80.05511719 154.18015625 -79.11023438 153.3603125 -78.13671875 152.515625 C-72.33663466 147.41084689 -66.88858653 142.11317434 -62.43359375 135.76953125 C-61.96050781 135.18558594 -61.48742187 134.60164062 -61 134 C-60.34 134 -59.68 134 -59 134 C-58.7628125 133.45988281 -58.525625 132.91976562 -58.28125 132.36328125 C-56.65305817 129.36006157 -54.62624771 126.86213122 -52.5 124.1875 C-43.60411726 112.80174588 -35.83579358 100.73002731 -29 88 C-28.67290039 87.3910791 -28.34580078 86.7821582 -28.00878906 86.15478516 C-14.41076847 61.16742414 -14.41076847 61.16742414 -9 34 C-8.36108224 30.64242196 -7.17908627 27.43555653 -6.125 24.1875 C-4.14936266 17.85109223 -2.81443619 11.53529354 -1.61328125 5.01953125 C-1 2 -1 2 0 0 Z " fill="#FEFEFE" transform="translate(511,289)"/>
<path d="M0 0 C44.75680498 -3.31804979 92.46548798 21.43202424 126.35693359 49.63330078 C127.98382289 50.98654391 129.62600127 52.3193944 131.26953125 53.65234375 C147.12914137 66.70047753 161.69397739 81.33725711 173.62109375 98.07421875 C174.93064831 99.90314339 176.27082149 101.70397472 177.625 103.5 C193.19732563 124.35842728 204.89307792 148.33334358 213.25341797 172.91845703 C213.93485247 174.81836238 214.72968762 176.67661049 215.53515625 178.52734375 C220.72592718 191.15002625 219.45625562 204.58889264 219 218 C216.29385564 215.29385564 216.33161233 212.57590999 215.8125 208.9375 C212.13993764 186.02591805 204.740795 163.3911621 193.95849609 142.8671875 C193.07223854 141.14072348 192.24612048 139.38374217 191.42578125 137.625 C183.96655414 121.69194059 173.41369398 107.36333003 162.44311523 93.68457031 C161.88954346 92.99331055 161.33597168 92.30205078 160.765625 91.58984375 C160.27868164 90.99034912 159.79173828 90.39085449 159.29003906 89.77319336 C157.94778639 87.92823099 156.9619823 86.06508184 156 84 C155.34 84 154.68 84 154 84 C152.625 82.6015625 152.625 82.6015625 151 80.625 C143.93481408 72.34822228 136.20739765 64.9906908 127.64013672 58.28515625 C126.47647883 57.37335287 125.31706685 56.45611907 124.16064453 55.53515625 C109.78775962 44.10242261 94.72377229 33.70670516 78 26 C76.83339844 25.43925781 75.66679687 24.87851562 74.46484375 24.30078125 C53.23476438 14.12554912 29.4457104 4.70420729 5.8125 2.4375 C2 2 2 2 0 0 Z " fill="#FEFEFE" transform="translate(293,0)"/>
<path d="M0 0 C1.51544769 0.26014959 3.03108704 0.51918416 4.546875 0.77734375 C16.86027171 2.96325464 28.33432458 6.53096505 40 11 C41.65128906 11.62841797 41.65128906 11.62841797 43.3359375 12.26953125 C46.98378667 13.69764816 50.51093661 15.21652786 54 17 C54 17.66 54 18.32 54 19 C54.68449219 19.2475 55.36898437 19.495 56.07421875 19.75 C59.50813451 21.21709352 62.6404887 23.04799305 65.8125 25 C66.40998047 25.35578125 67.00746094 25.7115625 67.62304688 26.078125 C69.11890414 26.99444442 70.56477862 27.99135247 72 29 C72 29.66 72 30.32 72 31 C73.32 31.33 74.64 31.66 76 32 C76 32.66 76 33.32 76 34 C77.65 34.66 79.3 35.32 81 36 C81 36.66 81 37.32 81 38 C81.55429687 38.23074219 82.10859375 38.46148437 82.6796875 38.69921875 C85.63392823 40.35538401 87.72626703 42.42450762 90.125 44.8125 C91.42824219 46.09060547 91.42824219 46.09060547 92.7578125 47.39453125 C94.92167745 49.90898756 95.99877948 51.86696725 97 55 C96.34 55 95.68 55 95 55 C93.5546875 53.53125 93.5546875 53.53125 91.875 51.5 C67.56339029 23.09485436 29.29323508 5.37103087 -7.85644531 2.14501953 C-28.668659 0.73699505 -49.29978266 2.68558464 -69.10205078 9.36474609 C-70.90083314 9.96680831 -72.71388301 10.52574263 -74.52734375 11.08203125 C-96.60701156 18.2395868 -116.74757473 32.65555816 -133 49 C-133.79664063 49.79664063 -134.59328125 50.59328125 -135.4140625 51.4140625 C-142.2057609 58.58974385 -147.60421375 66.75827899 -153 75 C-153.90105469 76.36511719 -153.90105469 76.36511719 -154.8203125 77.7578125 C-173.50557626 107.39988014 -178.53150976 144.13838161 -174.625 178.3125 C-174.49907471 179.42971436 -174.37314941 180.54692871 -174.2434082 181.69799805 C-174.11409912 182.7425415 -173.98479004 183.78708496 -173.8515625 184.86328125 C-173.73635254 185.80469971 -173.62114258 186.74611816 -173.50244141 187.71606445 C-173.17431846 190.18479507 -173.17431846 190.18479507 -171 192 C-170.5859375 194.6015625 -170.5859375 194.6015625 -170.375 197.625 C-170.30023438 198.62789062 -170.22546875 199.63078125 -170.1484375 200.6640625 C-170.09945312 201.43492187 -170.05046875 202.20578125 -170 203 C-170.66 203.33 -171.32 203.66 -172 204 C-175.24557283 193.06588571 -177.97058585 182.56039467 -178.77734375 171.1484375 C-178.93034639 168.98492648 -179.11160867 166.82328636 -179.31640625 164.6640625 C-179.82921471 159.09457317 -180.11978835 153.89548507 -179.3125 148.35546875 C-178.93510377 145.51084468 -178.79086395 142.67710862 -178.625 139.8125 C-176.42819861 111.08765755 -164.13293305 81.28595965 -146 59 C-145.55720703 58.45569336 -145.11441406 57.91138672 -144.65820312 57.35058594 C-123.22141231 31.14839352 -95.60533509 13.16359091 -63 4 C-61.79601562 3.64679688 -60.59203125 3.29359375 -59.3515625 2.9296875 C-54.60999805 1.61442836 -49.85377875 0.78677212 -45 0 C-43.86304688 -0.18820313 -42.72609375 -0.37640625 -41.5546875 -0.5703125 C-27.48103275 -2.69181884 -14.00049578 -2.69833344 0 0 Z " fill="#F8AC84" transform="translate(278,99)"/>
<path d="M0 0 C1.20337244 3.61011731 0.4357095 4.74571249 -1.19628906 8.03710938 C-1.71787598 9.03967773 -1.71787598 9.03967773 -2.25 10.0625 C-2.61061523 10.76568359 -2.97123047 11.46886719 -3.34277344 12.19335938 C-10.56004902 26.01885776 -18.97002354 38.84703892 -28.56494141 51.12988281 C-29.60356146 52.48337543 -30.6186195 53.85505717 -31.61865234 55.23730469 C-32.15055176 55.97110352 -32.68245117 56.70490234 -33.23046875 57.4609375 C-33.71281982 58.13688965 -34.1951709 58.8128418 -34.69213867 59.50927734 C-35.12373291 60.00121582 -35.55532715 60.4931543 -36 61 C-36.66 61 -37.32 61 -38 61 C-38.23460937 61.55042969 -38.46921875 62.10085938 -38.7109375 62.66796875 C-42.67584027 69.8408383 -49.73339176 76.03968649 -55.95703125 81.26953125 C-58.26165317 83.22162974 -60.46784658 85.264414 -62.6875 87.3125 C-77.59159722 100.71709963 -94.34732018 111.59008276 -112 121 C-112.6614502 121.35336426 -113.32290039 121.70672852 -114.00439453 122.07080078 C-123.73853303 127.22193097 -133.63399635 131.3087445 -144 135 C-145.26975901 135.49159963 -146.53928348 135.98380539 -147.80859375 136.4765625 C-152.64296654 138.29692722 -157.5899416 139.67472674 -162.5625 141.0625 C-163.46935547 141.31837891 -164.37621094 141.57425781 -165.31054688 141.83789062 C-167.07557368 142.33578434 -168.84118031 142.83162818 -170.60742188 143.32519531 C-172.66106752 143.90440721 -174.70820819 144.5065966 -176.75390625 145.11328125 C-185.05085637 147.37971648 -193.42039333 148.29083412 -202 148 C-201.505 147.01 -201.505 147.01 -201 146 C-198.62890625 145.4375 -198.62890625 145.4375 -195.5625 145 C-150.61789045 138.43703224 -108.28770045 119.38627536 -73 91 C-71.99582031 90.20851563 -70.99164063 89.41703125 -69.95703125 88.6015625 C-59.9145815 80.57339921 -50.130676 71.99052698 -42 62 C-41.00297078 60.80307993 -40.00553313 59.60650003 -39.0078125 58.41015625 C-32.82399162 50.94283248 -27.01586527 43.39716695 -21.70703125 35.28125 C-20.86205078 34.15203125 -20.86205078 34.15203125 -20 33 C-19.34 33 -18.68 33 -18 33 C-17.90847656 32.47148437 -17.81695312 31.94296875 -17.72265625 31.3984375 C-16.74846708 28.16518264 -15.14167957 25.53978072 -13.4375 22.625 C-12.71593991 21.38423432 -11.99459233 20.14334503 -11.2734375 18.90234375 C-10.71414551 17.94497314 -10.71414551 17.94497314 -10.14355469 16.96826172 C-8.99236505 14.98685888 -7.85685108 12.99729765 -6.7265625 11.00390625 C-6.36377197 10.36437012 -6.00098145 9.72483398 -5.62719727 9.06591797 C-4.92647641 7.8296542 -4.22642556 6.59301039 -3.52709961 5.35595703 C-1.11133796 1.11133796 -1.11133796 1.11133796 0 0 Z " fill="#FAAC83" transform="translate(488,362)"/>
<path d="M0 0 C0.639375 0.639375 1.27875 1.27875 1.9375 1.9375 C2.618125 2.61619141 2.618125 2.61619141 3.3125 3.30859375 C4.58838277 4.58742995 5.858162 5.87235954 7.125 7.16015625 C12.1415362 12.2360096 17.04414403 17.02942935 23 21 C23 21.66 23 22.32 23 23 C23.804375 23.268125 24.60875 23.53625 25.4375 23.8125 C26.283125 24.204375 27.12875 24.59625 28 25 C28.33 25.99 28.66 26.98 29 28 C31.01508358 28.73323796 31.01508358 28.73323796 33 29 C33 29.66 33 30.32 33 31 C33.70125 31.268125 34.4025 31.53625 35.125 31.8125 C38.1649824 33.0681449 41.0727774 34.50235123 44 36 C44 36.66 44 37.32 44 38 C44.99 38 45.98 38 47 38 C47 38.66 47 39.32 47 40 C47.99 40 48.98 40 50 40 C50 40.66 50 41.32 50 42 C50.99 42 51.98 42 53 42 C53 42.66 53 43.32 53 44 C55.31 44.66 57.62 45.32 60 46 C60 46.66 60 47.32 60 48 C60.680625 48.2475 61.36125 48.495 62.0625 48.75 C64.88919194 49.95284763 67.44563301 51.38814952 70.05859375 53 C72.0811699 54.10647598 72.0811699 54.10647598 74.73828125 54.8984375 C77.81574876 55.93777383 80.6756415 57.21957977 83.60546875 58.61425781 C102.31314019 67.43139804 122.89253809 73.24986428 143.3046875 76.53125 C146.08571089 77.01490624 148.4237402 77.86341479 151 79 C129.39895324 85.88439828 88.4052023 65.47590899 69.28417969 55.63745117 C61.30335002 51.43316743 53.61536747 46.83453006 46 42 C44.92878906 41.34515625 43.85757813 40.6903125 42.75390625 40.015625 C41.74199219 39.39171875 40.73007813 38.7678125 39.6875 38.125 C38.78386719 37.57070313 37.88023438 37.01640625 36.94921875 36.4453125 C35.98435547 35.72988281 35.98435547 35.72988281 35 35 C35 34.34 35 33.68 35 33 C34.31292969 32.78472656 33.62585938 32.56945312 32.91796875 32.34765625 C29.13831727 30.60203408 26.40913743 28.18453766 23.3125 25.4375 C22.69818115 24.9010083 22.0838623 24.3645166 21.45092773 23.81176758 C19.62744155 22.21505832 17.81276834 20.60885739 16 19 C14.56914063 17.73929687 14.56914063 17.73929687 13.109375 16.453125 C8.24241205 12.12361808 3.53811995 7.67336194 -1 3 C-0.67 2.01 -0.34 1.02 0 0 Z " fill="#FAAA82" transform="translate(71,429)"/>
<path d="M0 0 C0.66 0 1.32 0 2 0 C2.86114943 3.89463992 3.71541795 7.79072042 4.56347656 11.68823242 C4.85262686 13.01253431 5.14361885 14.33643552 5.43652344 15.65991211 C5.85841904 17.56776994 6.27303782 19.4772323 6.6875 21.38671875 C7.06455078 23.10701294 7.06455078 23.10701294 7.44921875 24.86206055 C8 28 8 28 8 33 C3.38 33 -1.24 33 -6 33 C-5.4449227 25.20977722 -4.26137301 17.89919867 -2.4375 10.3125 C-2.20353516 9.31283203 -1.96957031 8.31316406 -1.72851562 7.28320312 C-1.15894867 4.85382572 -0.58272348 2.42624867 0 0 Z " fill="#FEFEFE" transform="translate(313,234)"/>
<path d="M0 0 C2 1 2 1 2.81640625 3.44140625 C4.03787152 8.55109606 5.14886935 13.53581634 5.69921875 18.76953125 C7.20333222 29.92341162 9.88451277 42.28233691 14.11328125 52.7578125 C15.1223875 55.30947323 15.15540126 57.28047798 15 60 C15.66 60 16.32 60 17 60 C17.31453125 60.97839844 17.6290625 61.95679688 17.953125 62.96484375 C21.22636712 73.03804052 25.11238902 82.40187332 29.94921875 91.8359375 C31 94 31 94 32 97 C29 96 29 96 27.203125 93 C26.53962173 91.67282389 25.88949169 90.33891128 25.25 89 C24.90074463 88.28158936 24.55148926 87.56317871 24.19165039 86.82299805 C11.85601462 61.09885472 -1.34993151 29.02352741 0 0 Z " fill="#FAAB83" transform="translate(2,282)"/>
<path d="M0 0 C0.99 0 1.98 0 3 0 C1.29390205 4.47085155 -0.75109699 8.74875207 -2.8125 13.0625 C-8.82469545 25.78601484 -13.67336519 38.61865522 -18 52 C-18.33 52 -18.66 52 -19 52 C-18.36820856 45.57678701 -16.98050387 39.586456 -15.25 33.375 C-14.85010864 31.92673828 -14.85010864 31.92673828 -14.44213867 30.44921875 C-11.69190616 20.64880651 -8.68432209 11.07165545 -4 2 C-2.68 2.33 -1.36 2.66 0 3 C0 2.01 0 1.02 0 0 Z " fill="#4890CC" transform="translate(24,152)"/>
<path d="M0 0 C1.22244667 0.00333092 1.22244667 0.00333092 2.46958923 0.00672913 C3.39046829 0.00680466 4.31134735 0.00688019 5.26013184 0.00695801 C6.2611644 0.01211929 7.26219696 0.01728058 8.29356384 0.02259827 C9.31316696 0.02401321 10.33277008 0.02542816 11.38327026 0.02688599 C14.65417867 0.03250355 17.92501972 0.04505902 21.19590759 0.05775452 C23.40749515 0.06276725 25.61908377 0.06733055 27.83067322 0.07142639 C33.26494116 0.08247868 38.69916957 0.09923389 44.13340759 0.12025452 C42.13340759 2.12025452 42.13340759 2.12025452 40.26045227 2.36076355 C39.12127853 2.35410172 39.12127853 2.35410172 37.95909119 2.3473053 C36.66797928 2.3470787 36.66797928 2.3470787 35.3507843 2.34684753 C34.42053436 2.33652496 33.49028442 2.32620239 32.53184509 2.31556702 C31.58024506 2.31273712 30.62864502 2.30990723 29.64820862 2.30699158 C26.60148167 2.29577441 23.55504606 2.27066714 20.50840759 2.24525452 C18.44591183 2.2352267 16.38341147 2.22610051 14.32090759 2.21791077 C9.25829492 2.19583006 4.19590069 2.16128981 -0.86659241 2.12025452 C-0.86215118 2.75030396 -0.85770996 3.38035339 -0.85313416 4.02949524 C-0.80891059 10.58300002 -0.77872999 17.13646245 -0.75672913 23.69007874 C-0.74666736 26.13638531 -0.7330166 28.58267985 -0.7157135 31.02894592 C-0.69147322 34.54378733 -0.68011102 38.05846981 -0.67127991 41.57337952 C-0.66095734 42.66829712 -0.65063477 43.76321472 -0.63999939 44.89131165 C-0.63984833 45.91206787 -0.63969727 46.9328241 -0.63954163 47.98451233 C-0.6351004 48.8816394 -0.63065918 49.77876648 -0.62608337 50.70307922 C-0.88209739 53.27608346 -1.56637917 54.90575023 -2.86659241 57.12025452 C-2.88972156 49.83603903 -2.90751042 42.55183142 -2.91840458 35.26758671 C-2.92363216 31.88553639 -2.93072752 28.50351112 -2.94203186 25.12147522 C-2.95493507 21.23695674 -2.95982165 17.35244855 -2.96424866 13.46791077 C-2.96940994 12.24814041 -2.97457123 11.02837006 -2.97988892 9.77163696 C-2.97996445 8.65055038 -2.98003998 7.52946381 -2.9801178 6.37440491 C-2.98233841 5.38179153 -2.98455902 4.38917816 -2.98684692 3.3664856 C-2.83819538 0.58982716 -2.7769491 0.17890391 0 0 Z " fill="#5A616F" transform="translate(205.86659240722656,180.87974548339844)"/>
<path d="M0 0 C2.5037848 2.5037848 2.81102639 4.40666152 3.75 7.8125 C6.63073428 17.50418966 10.85378434 26.4742819 16.1171875 35.09765625 C17 37 17 37 17 41 C16.34 41 15.68 41 15 41 C15.33 43.31 15.66 45.62 16 48 C13.37229245 46.68614622 13.26758144 45.62014709 12.23046875 42.90625 C11.90119385 42.04870117 11.57191895 41.19115234 11.23266602 40.30761719 C10.88776123 39.38110352 10.54285645 38.45458984 10.1875 37.5 C9.65564087 36.08315918 9.65564087 36.08315918 9.11303711 34.63769531 C0.63992628 11.73198174 0.63992628 11.73198174 0 0 Z " fill="#498BC7" transform="translate(107,296)"/>
<path d="M0 0 C1.08114197 3.25029465 0.92390642 5.06760428 -0.22265625 8.2734375 C-0.51132568 9.09231445 -0.79999512 9.91119141 -1.09741211 10.75488281 C-1.41589111 11.61952148 -1.73437012 12.48416016 -2.0625 13.375 C-2.38033447 14.26026367 -2.69816895 15.14552734 -3.02563477 16.05761719 C-5.73286496 23.50031318 -8.7383584 30.7837673 -12 38 C-13.32 37.67 -14.64 37.34 -16 37 C-16.26505447 33.08534942 -15.79596679 31.19585492 -13.5625 28 C-9.55004836 21.71254587 -6.84255884 14.91205982 -3.98461914 8.04882812 C-3.61199951 7.15486328 -3.23937988 6.26089844 -2.85546875 5.33984375 C-2.52184326 4.52894287 -2.18821777 3.71804199 -1.84448242 2.88256836 C-1 1 -1 1 0 0 Z " fill="#F0B49B" transform="translate(502,325)"/>
<path d="M0 0 C3.90186951 1.30062317 4.12119896 2.64630456 5.9375 6.25 C7.99712827 10.21516963 10.1801441 13.52940813 13 17 C13 17.99 13 18.98 13 20 C13.66 20 14.32 20 15 20 C16.3540932 21.98600337 17.68457624 23.98817543 19 26 C19.680625 26.680625 20.36125 27.36125 21.0625 28.0625 C23.20223135 30.20223135 24.4747476 32.39436048 26 35 C28.06174657 37.74899543 30.13343869 40.12708447 32.625 42.5 C34.97485987 44.97353671 35.98828861 46.78091832 37 50 C31.94907614 45.94551049 27.72345528 41.62020823 23.6875 36.5625 C23.1291748 35.86874268 22.57084961 35.17498535 21.99560547 34.46020508 C16.97365442 28.13151455 12.44507122 21.53508147 8.10351562 14.7265625 C7.02463762 13.03854806 5.92657975 11.36284106 4.828125 9.6875 C0 2.2715 0 2.2715 0 0 Z " fill="#FAA87F" transform="translate(33,380)"/>
<path d="M0 0 C6.2718523 0.80386892 12.37362742 2.12353969 18.53320312 3.5390625 C30.03417354 6.06343602 41.51807077 6.13914074 53.25 6.0625 C54.59244622 6.05746786 55.9348943 6.05290802 57.27734375 6.04882812 C60.5182781 6.03717009 63.75911369 6.02080774 67 6 C63.35225154 8.43183231 60.61369408 8.30610888 56.39453125 8.30078125 C55.63766525 8.30506638 54.88079926 8.3093515 54.10099792 8.31376648 C52.49125159 8.31951428 50.88147928 8.32000672 49.27172852 8.31567383 C46.8662136 8.31256932 44.46199827 8.33576825 42.05664062 8.36132812 C31.77325411 8.40257041 21.99119124 7.52791178 12 5 C11.67 4.67 11.34 4.34 11 4 C9.081875 3.814375 9.081875 3.814375 7.125 3.625 C4.33279049 3.31975846 3.25707001 3.20083594 1 1.4375 C0.67 0.963125 0.34 0.48875 0 0 Z " fill="#5590CB" transform="translate(209,403)"/>
<path d="M0 0 C11.29788178 -0.31602467 11.29788178 -0.31602467 15.72753906 2.06640625 C14.61717285 2.0914624 13.50680664 2.11651855 12.36279297 2.14233398 C8.25150588 2.2363554 4.14038983 2.33658882 0.02929688 2.4387207 C-1.75158697 2.48208955 -3.53251292 2.52376319 -5.31347656 2.5637207 C-7.87024642 2.62137615 -10.42680392 2.68508395 -12.98339844 2.75 C-13.7824057 2.76671249 -14.58141296 2.78342499 -15.40463257 2.80064392 C-19.47052461 2.82033616 -19.47052461 2.82033616 -23.27246094 4.06640625 C-29.59272925 5.03416 -35.8919221 5.16931817 -42.27246094 5.06640625 C-42.27246094 4.73640625 -42.27246094 4.40640625 -42.27246094 4.06640625 C-28.16015793 1.29621344 -14.35099947 0.41936741 0 0 Z " fill="#F0D7C9" transform="translate(204.2724609375,49.93359375)"/>
<path d="M0 0 C0.33 0.99 0.66 1.98 1 3 C-5.27 9.27 -11.54 15.54 -18 22 C-18.99 21.67 -19.98 21.34 -21 21 C-7.04255319 5.65957447 -7.04255319 5.65957447 0 0 Z " fill="#F4D0B9" transform="translate(71,99)"/>
<path d="M0 0 C0.33 0.66 0.66 1.32 1 2 C1.66 2.33 2.32 2.66 3 3 C2.80365967 3.55872803 2.60731934 4.11745605 2.4050293 4.69311523 C1.49845098 7.27431926 0.59297046 9.85590715 -0.3125 12.4375 C-0.62123047 13.31599609 -0.92996094 14.19449219 -1.24804688 15.09960938 C-3.21705458 20.71646293 -5.13648781 26.34725998 -7 32 C-7.33 32 -7.66 32 -8 32 C-7.36431378 25.30940257 -5.81450694 19.08704124 -4 12.625 C-3.72671875 11.62855469 -3.4534375 10.63210937 -3.171875 9.60546875 C-1.14941109 2.29882219 -1.14941109 2.29882219 0 0 Z " fill="#508BC5" transform="translate(13,172)"/>
<path d="M0 0 C3.3014019 2.80619161 5.05669683 6.18040412 7 10 C7 11.32 7 12.64 7 14 C6.34 14 5.68 14 5 14 C5.33 16.31 5.66 18.62 6 21 C2.98270581 19.49135291 2.63407458 17.19537486 1.375 14.125 C0.92898437 13.05507813 0.48296875 11.98515625 0.0234375 10.8828125 C-1 8 -1 8 -1 5 C-0.34 5 0.32 5 1 5 C0.67 3.35 0.34 1.7 0 0 Z " fill="#4A92CE" transform="translate(117,323)"/>
<path d="M0 0 C-1.54269924 4.72065967 -3.07794619 9.41664092 -5 14 C-6.32 13.67 -7.64 13.34 -9 13 C-9.61690369 7.91054453 -7.70853769 5.14246941 -5 1 C-3 0 -3 0 0 0 Z " fill="#F7A983" transform="translate(495,349)"/>
<path d="M0 0 C2.29844873 3.44767309 3.67469403 7.02370903 5.125 10.875 C5.40214844 11.58269531 5.67929687 12.29039062 5.96484375 13.01953125 C7.39674434 16.80736679 8.37153179 19.88084322 8 24 C5.02528873 22.51264437 4.76652751 20.36195284 3.5625 17.3125 C1.86510462 13.09914284 0.11926382 9.01544723 -2 5 C-1.34 5 -0.68 5 0 5 C0 3.35 0 1.7 0 0 Z " fill="#F2B9A0" transform="translate(394,175)"/>
<path d="M0 0 C0.33 0.99 0.66 1.98 1 3 C0.01 3.33 -0.98 3.66 -2 4 C-2 4.99 -2 5.98 -2 7 C-2.66 7 -3.32 7 -4 7 C-4.268125 7.5775 -4.53625 8.155 -4.8125 8.75 C-6.0388622 11.07363365 -7.24843434 13.03824646 -9 15 C-9.99 15 -10.98 15 -12 15 C-12.0825 15.61875 -12.165 16.2375 -12.25 16.875 C-13 19 -13 19 -15.0625 20.25 C-15.701875 20.4975 -16.34125 20.745 -17 21 C-17 21.66 -17 22.32 -17 23 C-17.66 22.67 -18.32 22.34 -19 22 C-12.91867105 14.40568342 -6.61029287 7.13470024 0 0 Z " fill="#4891D2" transform="translate(71,77)"/>
<path d="M0 0 C0.66 0 1.32 0 2 0 C1.56405671 4.84768939 -0.43983285 6.92435992 -3.875 10.25 C-5.20144531 11.55710937 -5.20144531 11.55710937 -6.5546875 12.890625 C-9 15 -9 15 -12 16 C-11.65874967 12.9856221 -11.34954052 11.37697083 -9.2578125 9.12109375 C-8.55398437 8.56550781 -7.85015625 8.00992187 -7.125 7.4375 C-4.87300654 5.63839822 -3.0827678 4.11227116 -1.3671875 1.78515625 C-0.91601562 1.19605469 -0.46484375 0.60695313 0 0 Z " fill="#3E485C" transform="translate(224,303)"/>
<path d="M0 0 C3.44580795 1.2306457 4.89352475 3.01493599 6.7890625 6.078125 C8.33546529 8.53241588 10.01123899 10.88270894 11.6875 13.25 C14.88321168 17.76642336 14.88321168 17.76642336 16 20 C16.99 20.33 17.98 20.66 19 21 C19 22.65 19 24.3 19 26 C18.34 26 17.68 26 17 26 C15.54251818 23.90146809 14.19770831 21.80647535 12.875 19.625 C9.41052804 14.04378467 5.6943154 8.90714718 1.43359375 3.890625 C0 2 0 2 0 0 Z " fill="#F9A57C" transform="translate(375,154)"/>
<path d="M0 0 C2.8214199 5.07391152 3.76548443 10.74538932 2.42578125 16.44140625 C1.90117035 17.9538211 1.34986929 19.4572995 0.76953125 20.94921875 C-0.21961795 23.58527626 -0.64294526 26.214973 -1 29 C-1.33 29 -1.66 29 -2 29 C-2.2942295 21.90579972 -1.56698947 15.20362221 -0.4375 8.19921875 C-0.05584048 5.40833354 0.08434552 2.80976008 0 0 Z " fill="#E3A385" transform="translate(4,205)"/>
<path d="M0 0 C2 3 2 3 1.9375 5.375 C0.68051429 8.89456 -1.15438591 10.61762542 -4 13 C-5.32 13.33 -6.64 13.66 -8 14 C-5.36 9.38 -2.72 4.76 0 0 Z " fill="#F6C8AE" transform="translate(485,359)"/>
<path d="M0 0 C0.33 0 0.66 0 1 0 C1.3384185 3.6870516 1.66981608 7.37470259 2 11.0625 C2.14308594 12.62000977 2.14308594 12.62000977 2.2890625 14.20898438 C2.75899954 19.49577606 3.12045745 24.69234381 3 30 C-0.77179867 22.99523104 -1.18051032 17.41325469 -0.625 9.625 C-0.56828125 8.69816406 -0.5115625 7.77132813 -0.453125 6.81640625 C-0.31252613 4.54339122 -0.16121248 2.27163037 0 0 Z " fill="#F5A881" transform="translate(100,251)"/>
<path d="M0 0 C6.03214585 0.53934481 12.05111002 1.20340506 18.0625 1.9375 C19.99802734 2.16759766 19.99802734 2.16759766 21.97265625 2.40234375 C22.97167969 2.59957031 23.97070312 2.79679687 25 3 C25.33 3.66 25.66 4.32 26 5 C19.84765625 5.09765625 19.84765625 5.09765625 18 5 C17.67 4.67 17.34 4.34 17 4 C13.57897667 3.55361647 10.15952712 3.17705809 6.7265625 2.83789062 C4.80916194 2.6250384 2.9025909 2.31918466 1 2 C0.67 1.34 0.34 0.68 0 0 Z " fill="#F2DACC" transform="translate(264,457)"/>
<path d="M0 0 C0.75 1.5625 0.75 1.5625 1 4 C-0.22878565 6.50672273 -1.47638828 8.68087419 -3 11 C-3.52980469 11.80953125 -4.05960938 12.6190625 -4.60546875 13.453125 C-6.05648464 15.6451585 -7.52142417 17.82649353 -9 20 C-9.33 19.34 -9.66 18.68 -10 18 C-8.80250988 15.44831117 -7.55433211 13.02094761 -6.1875 10.5625 C-5.63352539 9.5405957 -5.63352539 9.5405957 -5.06835938 8.49804688 C-3.47260809 5.57298033 -1.85100641 2.77650962 0 0 Z " fill="#438FD1" transform="translate(36,123)"/>
<path d="M0 0 C4.29 0 8.58 0 13 0 C12.0625 13.25892857 12.0625 13.25892857 11 18 C10.67 18 10.34 18 10 18 C10.33 12.72 10.66 7.44 11 2 C7.37 1.67 3.74 1.34 0 1 C0 0.67 0 0.34 0 0 Z " fill="#505766" transform="translate(168,186)"/>
<path d="M0 0 C3.20831391 -0.0292483 6.41659307 -0.04688189 9.625 -0.0625 C10.98044922 -0.07506836 10.98044922 -0.07506836 12.36328125 -0.08789062 C17.02904289 -0.10491895 21.41013285 0.03170577 26 1 C26 1.33 26 1.66 26 2 C22.97961078 2.22328552 19.95968289 2.42901467 16.9375 2.625 C16.08994141 2.68945312 15.24238281 2.75390625 14.36914062 2.8203125 C9.06983265 3.14768288 5.01133209 2.78150476 0 1 C0 0.67 0 0.34 0 0 Z " fill="#4A5262" transform="translate(134,185)"/>
<path d="M0 0 C6.75 -0.125 6.75 -0.125 9 1 C11.20266316 1.38787256 13.41224568 1.73709495 15.625 2.0625 C17.40777344 2.32740234 17.40777344 2.32740234 19.2265625 2.59765625 C20.59941406 2.79681641 20.59941406 2.79681641 22 3 C22 3.33 22 3.66 22 4 C15.07 3.67 8.14 3.34 1 3 C0.67 2.01 0.34 1.02 0 0 Z " fill="#5E9FD6" transform="translate(286,0)"/>
<path d="M0 0 C1.20089206 3.60267617 0.67431092 5.00513433 -0.3125 8.625 C-1.66669717 13.731193 -2.88144124 18.8374211 -4 24 C-4.33 24 -4.66 24 -5 24 C-5.05406122 22.06280622 -5.09282025 20.12518079 -5.125 18.1875 C-5.14820313 17.10855469 -5.17140625 16.02960938 -5.1953125 14.91796875 C-5 12 -5 12 -3 9 C-2.4172881 7.45233858 -1.87735813 5.88807778 -1.375 4.3125 C-1.11460937 3.50425781 -0.85421875 2.69601562 -0.5859375 1.86328125 C-0.39257812 1.24839844 -0.19921875 0.63351562 0 0 Z " fill="#548CC0" transform="translate(511,286)"/>
<path d="M0 0 C0.33 0.66 0.66 1.32 1 2 C-1.1790857 8.38160813 -6.1964948 12.46839132 -11 17 C-11 13.51005938 -10.58329652 13.19811312 -8.3125 10.75 C-5.24556414 7.33338974 -2.61668435 3.77110391 0 0 Z " fill="#4C8FCC" transform="translate(384,342)"/>
<path d="M0 0 C1.134375 0.020625 2.26875 0.04125 3.4375 0.0625 C3.1075 1.0525 2.7775 2.0425 2.4375 3.0625 C-6.9675 3.5575 -6.9675 3.5575 -16.5625 4.0625 C-13.51651253 2.03184169 -12.43437319 1.76767596 -8.9375 1.5 C-5.42032183 1.22112989 -3.46847997 0.06085053 0 0 Z " fill="#5C9FD6" transform="translate(223.5625,-0.0625)"/>
<path d="M0 0 C3.66541254 5.4981188 4.34357529 12.47206957 4 19 C3.34 19 2.68 19 2 19 C0.3501993 15.70039859 0.61741639 12.00872116 0.4375 8.375 C0.39431641 7.57320312 0.35113281 6.77140625 0.30664062 5.9453125 C0.20048543 3.9637489 0.09973145 1.98189729 0 0 Z " fill="#5F9BCE" transform="translate(508,205)"/>
<path d="M0 0 C2.53791776 2.53791776 2.86805753 4.5387918 3.75 8 C4.03359375 9.0725 4.3171875 10.145 4.609375 11.25 C4.73828125 12.1575 4.8671875 13.065 5 14 C4.34 14.66 3.68 15.32 3 16 C2.49193553 14.27318563 1.99389533 12.54342021 1.5 10.8125 C1.08234375 9.36810547 1.08234375 9.36810547 0.65625 7.89453125 C0.03322392 5.14654124 -0.12302812 2.80401584 0 0 Z " fill="#6C8CB4" transform="translate(107,296)"/>
<path d="M0 0 C1.98 0 3.96 0 6 0 C6.33 0.66 6.66 1.32 7 2 C5.7934375 2.556875 5.7934375 2.556875 4.5625 3.125 C1.68827104 4.8109337 1.68827104 4.8109337 1.1875 8.1875 C1.125625 9.115625 1.06375 10.04375 1 11 C0.67 11 0.34 11 0 11 C0 7.37 0 3.74 0 0 Z " fill="#26354E" transform="translate(134,186)"/>
<path d="M0 0 C1.1171875 1.609375 1.1171875 1.609375 2 4 C1.3203125 7.015625 1.3203125 7.015625 0.125 10.25 C-0.26429687 11.32765625 -0.65359375 12.4053125 -1.0546875 13.515625 C-1.36664063 14.33546875 -1.67859375 15.1553125 -2 16 C-2.33 16 -2.66 16 -3 16 C-2.40984815 10.49191603 -1.43336231 5.35121931 0 0 Z " fill="#668BB6" transform="translate(8,188)"/>
<path d="M0 0 C0.33 0 0.66 0 1 0 C1 2.97 1 5.94 1 9 C-0.65 9.33 -2.3 9.66 -4 10 C-2.8905928 6.51329166 -1.73662334 3.22515763 0 0 Z " fill="#F2C1AA" transform="translate(495,340)"/>
<path d="M0 0 C3 1 3 1 4 3 C3.34 3 2.68 3 2 3 C2 3.99 2 4.98 2 6 C1.01 6.33 0.02 6.66 -1 7 C-0.67 4.69 -0.34 2.38 0 0 Z " fill="#328DD3" transform="translate(22,149)"/>
<path d="M0 0 C2.50037734 2.17424117 3.43628586 3.73045798 4 7 C3.34 7 2.68 7 2 7 C1.34 7.99 0.68 8.98 0 10 C-0.33 8.35 -0.66 6.7 -1 5 C-0.34 5 0.32 5 1 5 C0.67 3.35 0.34 1.7 0 0 Z " fill="#5A92C7" transform="translate(117,323)"/>
<path d="M0 0 C-2.96921058 1.64956143 -5.60527583 2.66052758 -9 3 C-11.3125 2.0625 -11.3125 2.0625 -13 1 C-8.60563789 0.14256349 -4.47427924 -0.08948558 0 0 Z " fill="#F5E3D8" transform="translate(341,459)"/>
<path d="M0 0 C1.65 0 3.3 0 5 0 C3.68 2.31 2.36 4.62 1 7 C0.67 7 0.34 7 0 7 C0 4.69 0 2.38 0 0 Z " fill="#2B384F" transform="translate(285,181)"/>
<path d="M0 0 C0.33 0 0.66 0 1 0 C0.67 2.64 0.34 5.28 0 8 C-1.32 8.33 -2.64 8.66 -4 9 C-2.80100302 5.9168649 -1.52299523 2.93720508 0 0 Z " fill="#F2D2C0" transform="translate(490,350)"/>
<path d="M0 0 C2.12046792 3.53411321 2.53199289 6.94393835 3 11 C1 10 1 10 0 7 C-0.03954234 4.66700175 -0.04401732 2.33291811 0 0 Z " fill="#EDCCBF" transform="translate(399,188)"/>
<path d="M0 0 C0.66 0.33 1.32 0.66 2 1 C1.67 1.66 1.34 2.32 1 3 C-1.06640625 3.6328125 -1.06640625 3.6328125 -3.5625 4.125 C-4.38878906 4.29257812 -5.21507812 4.46015625 -6.06640625 4.6328125 C-6.70449219 4.75398438 -7.34257812 4.87515625 -8 5 C-6.35197949 1.70395897 -3.32254422 1.22409524 0 0 Z " fill="#5496D2" transform="translate(150,21)"/>
<path d="M0 0 C1.39195915 4.17587745 -0.17676781 6.13474776 -2 10 C-2.66 9.67 -3.32 9.34 -4 9 C-2.68 6.03 -1.36 3.06 0 0 Z " fill="#F2D7C8" transform="translate(20,165)"/>
<path d="M0 0 C-3.08888522 2.05925681 -3.70935927 2.2390374 -7.1875 2.125 C-9.0746875 2.063125 -9.0746875 2.063125 -11 2 C-7.00042393 -0.06874624 -4.43559483 -1.37656391 0 0 Z " fill="#F4DED1" transform="translate(158,57)"/>
<path d="M0 0 C0.66 0.33 1.32 0.66 2 1 C-2.75 5.875 -2.75 5.875 -5 7 C-4.60196439 4.11424181 -4.20990931 3.17810487 -1.9375 1.25 C-1.298125 0.8375 -0.65875 0.425 0 0 Z " fill="#4891D2" transform="translate(101,50)"/>
</svg>
